<mxfile host="app.diagrams.net" agent="Mozilla/5.0 (Windows NT 10.0; Win64; x64) AppleWebKit/537.36 (KHTML, like Gecko) Chrome/141.0.0.0 Safari/537.36" version="28.2.5">
  <diagram name="PÃ¡gina-1" id="RiiLjxf1PCpIu9CeCaDA">
    <mxGraphModel grid="1" page="1" gridSize="10" guides="1" tooltips="1" connect="1" arrows="1" fold="1" pageScale="1" pageWidth="827" pageHeight="1169" math="0" shadow="0">
      <root>
        <mxCell id="0" />
        <mxCell id="1" parent="0" />
        <mxCell id="O3WUNcBEKQLEEM2FVgUP-1" value="&lt;div&gt;&amp;lt;&amp;lt;Abstract&amp;gt;&amp;gt;&lt;/div&gt;Persona" style="swimlane;fontStyle=1;align=center;verticalAlign=top;childLayout=stackLayout;horizontal=1;startSize=40;horizontalStack=0;resizeParent=1;resizeParentMax=0;resizeLast=0;collapsible=1;marginBottom=0;whiteSpace=wrap;html=1;" vertex="1" parent="1">
          <mxGeometry x="360" y="240" width="160" height="174" as="geometry" />
        </mxCell>
        <mxCell id="O3WUNcBEKQLEEM2FVgUP-2" value="- id : String&lt;div&gt;- nombre : String&lt;/div&gt;&lt;div&gt;&amp;nbsp;- apellido : String&lt;/div&gt;&lt;div&gt;- documento : String&lt;/div&gt;&lt;div&gt;&amp;nbsp;- email : String&lt;/div&gt;&lt;div&gt;- telefono : String&lt;/div&gt;" style="text;strokeColor=none;fillColor=none;align=left;verticalAlign=top;spacingLeft=4;spacingRight=4;overflow=hidden;rotatable=0;points=[[0,0.5],[1,0.5]];portConstraint=eastwest;whiteSpace=wrap;html=1;" vertex="1" parent="O3WUNcBEKQLEEM2FVgUP-1">
          <mxGeometry y="40" width="160" height="100" as="geometry" />
        </mxCell>
        <mxCell id="O3WUNcBEKQLEEM2FVgUP-3" value="" style="line;strokeWidth=1;fillColor=none;align=left;verticalAlign=middle;spacingTop=-1;spacingLeft=3;spacingRight=3;rotatable=0;labelPosition=right;points=[];portConstraint=eastwest;strokeColor=inherit;" vertex="1" parent="O3WUNcBEKQLEEM2FVgUP-1">
          <mxGeometry y="140" width="160" height="8" as="geometry" />
        </mxCell>
        <mxCell id="O3WUNcBEKQLEEM2FVgUP-4" value="+ method(type): type" style="text;strokeColor=none;fillColor=none;align=left;verticalAlign=top;spacingLeft=4;spacingRight=4;overflow=hidden;rotatable=0;points=[[0,0.5],[1,0.5]];portConstraint=eastwest;whiteSpace=wrap;html=1;" vertex="1" parent="O3WUNcBEKQLEEM2FVgUP-1">
          <mxGeometry y="148" width="160" height="26" as="geometry" />
        </mxCell>
        <mxCell id="O3WUNcBEKQLEEM2FVgUP-5" value="Estudiante" style="swimlane;fontStyle=1;align=center;verticalAlign=top;childLayout=stackLayout;horizontal=1;startSize=26;horizontalStack=0;resizeParent=1;resizeParentMax=0;resizeLast=0;collapsible=1;marginBottom=0;whiteSpace=wrap;html=1;" vertex="1" parent="1">
          <mxGeometry x="160" y="550" width="160" height="130" as="geometry" />
        </mxCell>
        <mxCell id="O3WUNcBEKQLEEM2FVgUP-6" value="- nivelActual : String&lt;div&gt;&lt;br&gt;&lt;/div&gt;" style="text;strokeColor=none;fillColor=none;align=left;verticalAlign=top;spacingLeft=4;spacingRight=4;overflow=hidden;rotatable=0;points=[[0,0.5],[1,0.5]];portConstraint=eastwest;whiteSpace=wrap;html=1;" vertex="1" parent="O3WUNcBEKQLEEM2FVgUP-5">
          <mxGeometry y="26" width="160" height="26" as="geometry" />
        </mxCell>
        <mxCell id="O3WUNcBEKQLEEM2FVgUP-7" value="" style="line;strokeWidth=1;fillColor=none;align=left;verticalAlign=middle;spacingTop=-1;spacingLeft=3;spacingRight=3;rotatable=0;labelPosition=right;points=[];portConstraint=eastwest;strokeColor=inherit;" vertex="1" parent="O3WUNcBEKQLEEM2FVgUP-5">
          <mxGeometry y="52" width="160" height="10" as="geometry" />
        </mxCell>
        <mxCell id="O3WUNcBEKQLEEM2FVgUP-8" value="inscribirCurso(curso: Curso)&lt;div&gt;consultarHorario()&lt;/div&gt;&lt;div&gt;descargarReporte()&lt;/div&gt;" style="text;strokeColor=none;fillColor=none;align=left;verticalAlign=top;spacingLeft=4;spacingRight=4;overflow=hidden;rotatable=0;points=[[0,0.5],[1,0.5]];portConstraint=eastwest;whiteSpace=wrap;html=1;" vertex="1" parent="O3WUNcBEKQLEEM2FVgUP-5">
          <mxGeometry y="62" width="160" height="68" as="geometry" />
        </mxCell>
        <mxCell id="O3WUNcBEKQLEEM2FVgUP-9" value="Profesor" style="swimlane;fontStyle=1;align=center;verticalAlign=top;childLayout=stackLayout;horizontal=1;startSize=26;horizontalStack=0;resizeParent=1;resizeParentMax=0;resizeLast=0;collapsible=1;marginBottom=0;whiteSpace=wrap;html=1;" vertex="1" parent="1">
          <mxGeometry x="360" y="640" width="160" height="120" as="geometry" />
        </mxCell>
        <mxCell id="O3WUNcBEKQLEEM2FVgUP-10" value="&amp;nbsp;- especialidad : String" style="text;strokeColor=none;fillColor=none;align=left;verticalAlign=top;spacingLeft=4;spacingRight=4;overflow=hidden;rotatable=0;points=[[0,0.5],[1,0.5]];portConstraint=eastwest;whiteSpace=wrap;html=1;" vertex="1" parent="O3WUNcBEKQLEEM2FVgUP-9">
          <mxGeometry y="26" width="160" height="26" as="geometry" />
        </mxCell>
        <mxCell id="O3WUNcBEKQLEEM2FVgUP-11" value="" style="line;strokeWidth=1;fillColor=none;align=left;verticalAlign=middle;spacingTop=-1;spacingLeft=3;spacingRight=3;rotatable=0;labelPosition=right;points=[];portConstraint=eastwest;strokeColor=inherit;" vertex="1" parent="O3WUNcBEKQLEEM2FVgUP-9">
          <mxGeometry y="52" width="160" height="8" as="geometry" />
        </mxCell>
        <mxCell id="O3WUNcBEKQLEEM2FVgUP-12" value="crearClaseGrupal()&lt;div&gt;registrarAsistencia()&lt;/div&gt;&lt;div&gt;evaluarProgreso()&lt;/div&gt;" style="text;strokeColor=none;fillColor=none;align=left;verticalAlign=top;spacingLeft=4;spacingRight=4;overflow=hidden;rotatable=0;points=[[0,0.5],[1,0.5]];portConstraint=eastwest;whiteSpace=wrap;html=1;" vertex="1" parent="O3WUNcBEKQLEEM2FVgUP-9">
          <mxGeometry y="60" width="160" height="60" as="geometry" />
        </mxCell>
        <mxCell id="O3WUNcBEKQLEEM2FVgUP-13" value="AdministradorAcademico" style="swimlane;fontStyle=1;align=center;verticalAlign=top;childLayout=stackLayout;horizontal=1;startSize=26;horizontalStack=0;resizeParent=1;resizeParentMax=0;resizeLast=0;collapsible=1;marginBottom=0;whiteSpace=wrap;html=1;" vertex="1" parent="1">
          <mxGeometry x="560" y="550" width="160" height="140" as="geometry" />
        </mxCell>
        <mxCell id="O3WUNcBEKQLEEM2FVgUP-14" value="+ field: type" style="text;strokeColor=none;fillColor=none;align=left;verticalAlign=top;spacingLeft=4;spacingRight=4;overflow=hidden;rotatable=0;points=[[0,0.5],[1,0.5]];portConstraint=eastwest;whiteSpace=wrap;html=1;" vertex="1" parent="O3WUNcBEKQLEEM2FVgUP-13">
          <mxGeometry y="26" width="160" height="26" as="geometry" />
        </mxCell>
        <mxCell id="O3WUNcBEKQLEEM2FVgUP-15" value="" style="line;strokeWidth=1;fillColor=none;align=left;verticalAlign=middle;spacingTop=-1;spacingLeft=3;spacingRight=3;rotatable=0;labelPosition=right;points=[];portConstraint=eastwest;strokeColor=inherit;" vertex="1" parent="O3WUNcBEKQLEEM2FVgUP-13">
          <mxGeometry y="52" width="160" height="8" as="geometry" />
        </mxCell>
        <mxCell id="O3WUNcBEKQLEEM2FVgUP-16" value="crearCurso()&lt;div&gt;modificarUsuario()&lt;/div&gt;&lt;div&gt;gestionarAulas()&lt;/div&gt;&lt;div&gt;generarReportes()&lt;/div&gt;" style="text;strokeColor=none;fillColor=none;align=left;verticalAlign=top;spacingLeft=4;spacingRight=4;overflow=hidden;rotatable=0;points=[[0,0.5],[1,0.5]];portConstraint=eastwest;whiteSpace=wrap;html=1;" vertex="1" parent="O3WUNcBEKQLEEM2FVgUP-13">
          <mxGeometry y="60" width="160" height="80" as="geometry" />
        </mxCell>
        <mxCell id="O3WUNcBEKQLEEM2FVgUP-21" value="Extends" style="endArrow=block;endSize=16;endFill=0;html=1;rounded=0;entryX=0;entryY=0.5;entryDx=0;entryDy=0;exitX=0.5;exitY=0;exitDx=0;exitDy=0;" edge="1" parent="1" source="O3WUNcBEKQLEEM2FVgUP-5" target="O3WUNcBEKQLEEM2FVgUP-2">
          <mxGeometry width="160" relative="1" as="geometry">
            <mxPoint x="370" y="420" as="sourcePoint" />
            <mxPoint x="470" y="440" as="targetPoint" />
            <Array as="points">
              <mxPoint x="240" y="330" />
            </Array>
          </mxGeometry>
        </mxCell>
        <mxCell id="O3WUNcBEKQLEEM2FVgUP-22" value="Extends" style="endArrow=block;endSize=16;endFill=0;html=1;rounded=0;entryX=1;entryY=0.5;entryDx=0;entryDy=0;exitX=0.5;exitY=0;exitDx=0;exitDy=0;" edge="1" parent="1" source="O3WUNcBEKQLEEM2FVgUP-13" target="O3WUNcBEKQLEEM2FVgUP-2">
          <mxGeometry width="160" relative="1" as="geometry">
            <mxPoint x="420" y="790" as="sourcePoint" />
            <mxPoint x="624" y="540" as="targetPoint" />
            <Array as="points">
              <mxPoint x="640" y="330" />
            </Array>
          </mxGeometry>
        </mxCell>
        <mxCell id="O3WUNcBEKQLEEM2FVgUP-23" value="Extends" style="endArrow=block;endSize=16;endFill=0;html=1;rounded=0;exitX=0.5;exitY=0;exitDx=0;exitDy=0;" edge="1" parent="1" source="O3WUNcBEKQLEEM2FVgUP-9">
          <mxGeometry width="160" relative="1" as="geometry">
            <mxPoint x="230" y="980" as="sourcePoint" />
            <mxPoint x="440" y="414" as="targetPoint" />
          </mxGeometry>
        </mxCell>
        <mxCell id="O3WUNcBEKQLEEM2FVgUP-24" value="&lt;b&gt;HERENCIA&lt;/b&gt;" style="rounded=1;whiteSpace=wrap;html=1;" vertex="1" parent="1">
          <mxGeometry x="320" y="40" width="260" height="60" as="geometry" />
        </mxCell>
        <mxCell id="YCs22R1dOhL2tlYhxTAM-1" value="Academia" style="swimlane;fontStyle=1;align=center;verticalAlign=top;childLayout=stackLayout;horizontal=1;startSize=26;horizontalStack=0;resizeParent=1;resizeParentMax=0;resizeLast=0;collapsible=1;marginBottom=0;whiteSpace=wrap;html=1;" vertex="1" parent="1">
          <mxGeometry x="1100" y="146" width="320" height="190" as="geometry" />
        </mxCell>
        <mxCell id="YCs22R1dOhL2tlYhxTAM-2" value="&lt;div&gt;&amp;nbsp; &amp;nbsp; - nombre : String&lt;/div&gt;&lt;div&gt;&amp;nbsp; &amp;nbsp; - direccion : String&lt;/div&gt;&lt;div&gt;&amp;nbsp; &amp;nbsp; - telefono : String&lt;/div&gt;" style="text;strokeColor=none;fillColor=none;align=left;verticalAlign=top;spacingLeft=4;spacingRight=4;overflow=hidden;rotatable=0;points=[[0,0.5],[1,0.5]];portConstraint=eastwest;whiteSpace=wrap;html=1;" vertex="1" parent="YCs22R1dOhL2tlYhxTAM-1">
          <mxGeometry y="26" width="320" height="54" as="geometry" />
        </mxCell>
        <mxCell id="YCs22R1dOhL2tlYhxTAM-3" value="" style="line;strokeWidth=1;fillColor=none;align=left;verticalAlign=middle;spacingTop=-1;spacingLeft=3;spacingRight=3;rotatable=0;labelPosition=right;points=[];portConstraint=eastwest;strokeColor=inherit;" vertex="1" parent="YCs22R1dOhL2tlYhxTAM-1">
          <mxGeometry y="80" width="320" height="8" as="geometry" />
        </mxCell>
        <mxCell id="YCs22R1dOhL2tlYhxTAM-4" value="&lt;div&gt;&lt;li data-end=&quot;890&quot; data-start=&quot;869&quot;&gt;+ registrarEstudiante(e: Estudiante) : void&amp;nbsp;&lt;/li&gt;&lt;li data-end=&quot;890&quot; data-start=&quot;869&quot;&gt;+ registrarProfesor(p: Profesor) : void&amp;nbsp; &amp;nbsp; &amp;nbsp;&lt;/li&gt;&lt;li data-end=&quot;890&quot; data-start=&quot;869&quot;&gt;+ crearCurso(c: Curso) : void&amp;nbsp; &amp;nbsp; &amp;nbsp; &amp;nbsp; &amp;nbsp; &amp;nbsp; &amp;nbsp;&amp;nbsp;&lt;/li&gt;&lt;li data-end=&quot;890&quot; data-start=&quot;869&quot;&gt;+ asignarProfesor(curso: Curso, profesor: Profesor) : void&amp;nbsp;&lt;/li&gt;&lt;li data-end=&quot;890&quot; data-start=&quot;869&quot;&gt;+ generarReporte() : void&amp;nbsp;&lt;/li&gt;&lt;/div&gt;" style="text;strokeColor=none;fillColor=none;align=left;verticalAlign=top;spacingLeft=4;spacingRight=4;overflow=hidden;rotatable=0;points=[[0,0.5],[1,0.5]];portConstraint=eastwest;whiteSpace=wrap;html=1;" vertex="1" parent="YCs22R1dOhL2tlYhxTAM-1">
          <mxGeometry y="88" width="320" height="102" as="geometry" />
        </mxCell>
        <mxCell id="YCs22R1dOhL2tlYhxTAM-5" value="Clase" style="swimlane;fontStyle=1;align=center;verticalAlign=top;childLayout=stackLayout;horizontal=1;startSize=26;horizontalStack=0;resizeParent=1;resizeParentMax=0;resizeLast=0;collapsible=1;marginBottom=0;whiteSpace=wrap;html=1;" vertex="1" parent="1">
          <mxGeometry x="1366" y="1700" width="225" height="150" as="geometry" />
        </mxCell>
        <mxCell id="YCs22R1dOhL2tlYhxTAM-6" value="&lt;div&gt;&amp;nbsp; &amp;nbsp; - idClase : String&lt;/div&gt;&lt;div&gt;&amp;nbsp; &amp;nbsp; - fecha : String&lt;/div&gt;&lt;div&gt;&amp;nbsp; &amp;nbsp; - hora : String&lt;/div&gt;&lt;div&gt;&amp;nbsp; &amp;nbsp; - tipo : String&lt;/div&gt;&lt;div&gt;&amp;nbsp; &amp;nbsp; - asistencia : MapEstudiante, Boolean&lt;/div&gt;" style="text;strokeColor=none;fillColor=none;align=left;verticalAlign=top;spacingLeft=4;spacingRight=4;overflow=hidden;rotatable=0;points=[[0,0.5],[1,0.5]];portConstraint=eastwest;whiteSpace=wrap;html=1;" vertex="1" parent="YCs22R1dOhL2tlYhxTAM-5">
          <mxGeometry y="26" width="225" height="84" as="geometry" />
        </mxCell>
        <mxCell id="YCs22R1dOhL2tlYhxTAM-7" value="" style="line;strokeWidth=1;fillColor=none;align=left;verticalAlign=middle;spacingTop=-1;spacingLeft=3;spacingRight=3;rotatable=0;labelPosition=right;points=[];portConstraint=eastwest;strokeColor=inherit;" vertex="1" parent="YCs22R1dOhL2tlYhxTAM-5">
          <mxGeometry y="110" width="225" height="8" as="geometry" />
        </mxCell>
        <mxCell id="YCs22R1dOhL2tlYhxTAM-8" value="+ method(type): type" style="text;strokeColor=none;fillColor=none;align=left;verticalAlign=top;spacingLeft=4;spacingRight=4;overflow=hidden;rotatable=0;points=[[0,0.5],[1,0.5]];portConstraint=eastwest;whiteSpace=wrap;html=1;" vertex="1" parent="YCs22R1dOhL2tlYhxTAM-5">
          <mxGeometry y="118" width="225" height="32" as="geometry" />
        </mxCell>
        <mxCell id="YCs22R1dOhL2tlYhxTAM-9" value="Curso" style="swimlane;fontStyle=1;align=center;verticalAlign=top;childLayout=stackLayout;horizontal=1;startSize=26;horizontalStack=0;resizeParent=1;resizeParentMax=0;resizeLast=0;collapsible=1;marginBottom=0;whiteSpace=wrap;html=1;" vertex="1" parent="1">
          <mxGeometry x="1400" y="525" width="240" height="190" as="geometry" />
        </mxCell>
        <mxCell id="YCs22R1dOhL2tlYhxTAM-10" value="&lt;div&gt;&amp;nbsp; &amp;nbsp; - idCurso : String&lt;/div&gt;&lt;div&gt;&amp;nbsp; &amp;nbsp; - instrumento : String&lt;/div&gt;&lt;div&gt;&amp;nbsp; &amp;nbsp; - nivel : String&lt;/div&gt;&lt;div&gt;&amp;nbsp; &amp;nbsp; - capacidad : int&lt;/div&gt;&lt;div&gt;&amp;nbsp; &amp;nbsp; - prerrequisito : String&lt;/div&gt;&lt;div&gt;&amp;nbsp; &amp;nbsp; - clasesProgramadas : ListClase&lt;/div&gt;" style="text;strokeColor=none;fillColor=none;align=left;verticalAlign=top;spacingLeft=4;spacingRight=4;overflow=hidden;rotatable=0;points=[[0,0.5],[1,0.5]];portConstraint=eastwest;whiteSpace=wrap;html=1;" vertex="1" parent="YCs22R1dOhL2tlYhxTAM-9">
          <mxGeometry y="26" width="240" height="104" as="geometry" />
        </mxCell>
        <mxCell id="YCs22R1dOhL2tlYhxTAM-11" value="" style="line;strokeWidth=1;fillColor=none;align=left;verticalAlign=middle;spacingTop=-1;spacingLeft=3;spacingRight=3;rotatable=0;labelPosition=right;points=[];portConstraint=eastwest;strokeColor=inherit;" vertex="1" parent="YCs22R1dOhL2tlYhxTAM-9">
          <mxGeometry y="130" width="240" height="8" as="geometry" />
        </mxCell>
        <mxCell id="YCs22R1dOhL2tlYhxTAM-12" value="&lt;div&gt;+ agregarEstudiante(e: Estudiante) : void&amp;nbsp;&lt;/div&gt;&lt;div&gt;+ verificarCupo() : boolean&amp;nbsp; &amp;nbsp; &amp;nbsp; &amp;nbsp; &amp;nbsp; &amp;nbsp;&amp;nbsp;&lt;/div&gt;&lt;div&gt;+ obtenerHorario() : Horario&amp;nbsp; &amp;nbsp; &amp;nbsp;&lt;/div&gt;" style="text;strokeColor=none;fillColor=none;align=left;verticalAlign=top;spacingLeft=4;spacingRight=4;overflow=hidden;rotatable=0;points=[[0,0.5],[1,0.5]];portConstraint=eastwest;whiteSpace=wrap;html=1;" vertex="1" parent="YCs22R1dOhL2tlYhxTAM-9">
          <mxGeometry y="138" width="240" height="52" as="geometry" />
        </mxCell>
        <mxCell id="YCs22R1dOhL2tlYhxTAM-13" value="Aula" style="swimlane;fontStyle=1;align=center;verticalAlign=top;childLayout=stackLayout;horizontal=1;startSize=26;horizontalStack=0;resizeParent=1;resizeParentMax=0;resizeLast=0;collapsible=1;marginBottom=0;whiteSpace=wrap;html=1;" vertex="1" parent="1">
          <mxGeometry x="1155" y="790" width="260" height="140" as="geometry" />
        </mxCell>
        <mxCell id="YCs22R1dOhL2tlYhxTAM-14" value="&lt;div&gt;&amp;nbsp; &amp;nbsp; - idAula : String&lt;/div&gt;&lt;div&gt;&amp;nbsp; &amp;nbsp; - capacidad : int&lt;/div&gt;&lt;div&gt;&amp;nbsp; &amp;nbsp; - tipo : String&lt;/div&gt;&lt;div&gt;&amp;nbsp; &amp;nbsp; - clasesOcupadas : ListClase&lt;/div&gt;" style="text;strokeColor=none;fillColor=none;align=left;verticalAlign=top;spacingLeft=4;spacingRight=4;overflow=hidden;rotatable=0;points=[[0,0.5],[1,0.5]];portConstraint=eastwest;whiteSpace=wrap;html=1;" vertex="1" parent="YCs22R1dOhL2tlYhxTAM-13">
          <mxGeometry y="26" width="260" height="64" as="geometry" />
        </mxCell>
        <mxCell id="YCs22R1dOhL2tlYhxTAM-15" value="" style="line;strokeWidth=1;fillColor=none;align=left;verticalAlign=middle;spacingTop=-1;spacingLeft=3;spacingRight=3;rotatable=0;labelPosition=right;points=[];portConstraint=eastwest;strokeColor=inherit;" vertex="1" parent="YCs22R1dOhL2tlYhxTAM-13">
          <mxGeometry y="90" width="260" height="8" as="geometry" />
        </mxCell>
        <mxCell id="YCs22R1dOhL2tlYhxTAM-16" value="+ verificarDisponibilidad(h: Horario) : boolean" style="text;strokeColor=none;fillColor=none;align=left;verticalAlign=top;spacingLeft=4;spacingRight=4;overflow=hidden;rotatable=0;points=[[0,0.5],[1,0.5]];portConstraint=eastwest;whiteSpace=wrap;html=1;" vertex="1" parent="YCs22R1dOhL2tlYhxTAM-13">
          <mxGeometry y="98" width="260" height="42" as="geometry" />
        </mxCell>
        <mxCell id="YCs22R1dOhL2tlYhxTAM-17" value="ReporteProgreso" style="swimlane;fontStyle=1;align=center;verticalAlign=top;childLayout=stackLayout;horizontal=1;startSize=30;horizontalStack=0;resizeParent=1;resizeParentMax=0;resizeLast=0;collapsible=1;marginBottom=0;whiteSpace=wrap;html=1;" vertex="1" parent="1">
          <mxGeometry x="30" y="1840" width="209" height="134" as="geometry" />
        </mxCell>
        <mxCell id="YCs22R1dOhL2tlYhxTAM-18" value="&lt;div&gt;&lt;br&gt;&lt;/div&gt;&lt;div&gt;&amp;nbsp; &amp;nbsp; - evaluaciones : MapString, double&lt;/div&gt;&lt;div&gt;&amp;nbsp; &amp;nbsp; - comentarios : String&lt;/div&gt;&lt;div&gt;&amp;nbsp; &amp;nbsp; - estadoCertificado : Boolean&lt;/div&gt;" style="text;strokeColor=none;fillColor=none;align=left;verticalAlign=top;spacingLeft=4;spacingRight=4;overflow=hidden;rotatable=0;points=[[0,0.5],[1,0.5]];portConstraint=eastwest;whiteSpace=wrap;html=1;" vertex="1" parent="YCs22R1dOhL2tlYhxTAM-17">
          <mxGeometry y="30" width="209" height="70" as="geometry" />
        </mxCell>
        <mxCell id="YCs22R1dOhL2tlYhxTAM-19" value="" style="line;strokeWidth=1;fillColor=none;align=left;verticalAlign=middle;spacingTop=-1;spacingLeft=3;spacingRight=3;rotatable=0;labelPosition=right;points=[];portConstraint=eastwest;strokeColor=inherit;" vertex="1" parent="YCs22R1dOhL2tlYhxTAM-17">
          <mxGeometry y="100" width="209" height="8" as="geometry" />
        </mxCell>
        <mxCell id="YCs22R1dOhL2tlYhxTAM-20" value="+ method(type): type" style="text;strokeColor=none;fillColor=none;align=left;verticalAlign=top;spacingLeft=4;spacingRight=4;overflow=hidden;rotatable=0;points=[[0,0.5],[1,0.5]];portConstraint=eastwest;whiteSpace=wrap;html=1;" vertex="1" parent="YCs22R1dOhL2tlYhxTAM-17">
          <mxGeometry y="108" width="209" height="26" as="geometry" />
        </mxCell>
        <mxCell id="YCs22R1dOhL2tlYhxTAM-25" value="Estudiante" style="swimlane;fontStyle=1;align=center;verticalAlign=top;childLayout=stackLayout;horizontal=1;startSize=26;horizontalStack=0;resizeParent=1;resizeParentMax=0;resizeLast=0;collapsible=1;marginBottom=0;whiteSpace=wrap;html=1;" vertex="1" parent="1">
          <mxGeometry x="865" y="480" width="180" height="170" as="geometry" />
        </mxCell>
        <mxCell id="YCs22R1dOhL2tlYhxTAM-26" value="- nivelActual : String&lt;div&gt;&lt;br&gt;&lt;/div&gt;" style="text;strokeColor=none;fillColor=none;align=left;verticalAlign=top;spacingLeft=4;spacingRight=4;overflow=hidden;rotatable=0;points=[[0,0.5],[1,0.5]];portConstraint=eastwest;whiteSpace=wrap;html=1;" vertex="1" parent="YCs22R1dOhL2tlYhxTAM-25">
          <mxGeometry y="26" width="180" height="26" as="geometry" />
        </mxCell>
        <mxCell id="YCs22R1dOhL2tlYhxTAM-27" value="" style="line;strokeWidth=1;fillColor=none;align=left;verticalAlign=middle;spacingTop=-1;spacingLeft=3;spacingRight=3;rotatable=0;labelPosition=right;points=[];portConstraint=eastwest;strokeColor=inherit;" vertex="1" parent="YCs22R1dOhL2tlYhxTAM-25">
          <mxGeometry y="52" width="180" height="10" as="geometry" />
        </mxCell>
        <mxCell id="YCs22R1dOhL2tlYhxTAM-28" value="&lt;div&gt;+ inscribirseCurso(c: Curso) : void&amp;nbsp;&lt;/div&gt;&lt;div&gt;+ consultarHorario() : void&lt;/div&gt;&lt;div&gt;+ descargarReporte() : void&amp;nbsp;&amp;nbsp;&lt;/div&gt;" style="text;strokeColor=none;fillColor=none;align=left;verticalAlign=top;spacingLeft=4;spacingRight=4;overflow=hidden;rotatable=0;points=[[0,0.5],[1,0.5]];portConstraint=eastwest;whiteSpace=wrap;html=1;" vertex="1" parent="YCs22R1dOhL2tlYhxTAM-25">
          <mxGeometry y="62" width="180" height="108" as="geometry" />
        </mxCell>
        <mxCell id="YCs22R1dOhL2tlYhxTAM-29" value="Profesor" style="swimlane;fontStyle=1;align=center;verticalAlign=top;childLayout=stackLayout;horizontal=1;startSize=26;horizontalStack=0;resizeParent=1;resizeParentMax=0;resizeLast=0;collapsible=1;marginBottom=0;whiteSpace=wrap;html=1;" vertex="1" parent="1">
          <mxGeometry x="855" y="700" width="240" height="170" as="geometry" />
        </mxCell>
        <mxCell id="YCs22R1dOhL2tlYhxTAM-30" value="&amp;nbsp;- especialidad : String" style="text;strokeColor=none;fillColor=none;align=left;verticalAlign=top;spacingLeft=4;spacingRight=4;overflow=hidden;rotatable=0;points=[[0,0.5],[1,0.5]];portConstraint=eastwest;whiteSpace=wrap;html=1;" vertex="1" parent="YCs22R1dOhL2tlYhxTAM-29">
          <mxGeometry y="26" width="240" height="26" as="geometry" />
        </mxCell>
        <mxCell id="YCs22R1dOhL2tlYhxTAM-31" value="" style="line;strokeWidth=1;fillColor=none;align=left;verticalAlign=middle;spacingTop=-1;spacingLeft=3;spacingRight=3;rotatable=0;labelPosition=right;points=[];portConstraint=eastwest;strokeColor=inherit;" vertex="1" parent="YCs22R1dOhL2tlYhxTAM-29">
          <mxGeometry y="52" width="240" height="8" as="geometry" />
        </mxCell>
        <mxCell id="YCs22R1dOhL2tlYhxTAM-32" value="&lt;div&gt;+ crearClaseGrupal(c: Curso) : void&amp;nbsp;&lt;/div&gt;&lt;div&gt;+ registrarAsistencia(e: Estudiante) : void&amp;nbsp;&lt;/div&gt;&lt;div&gt;+ evaluarProgreso(e: Estudiante) : void&lt;/div&gt;" style="text;strokeColor=none;fillColor=none;align=left;verticalAlign=top;spacingLeft=4;spacingRight=4;overflow=hidden;rotatable=0;points=[[0,0.5],[1,0.5]];portConstraint=eastwest;whiteSpace=wrap;html=1;" vertex="1" parent="YCs22R1dOhL2tlYhxTAM-29">
          <mxGeometry y="60" width="240" height="110" as="geometry" />
        </mxCell>
        <mxCell id="YCs22R1dOhL2tlYhxTAM-39" value="" style="endArrow=diamondThin;endFill=1;endSize=24;html=1;rounded=0;entryX=1;entryY=0.5;entryDx=0;entryDy=0;exitX=0.5;exitY=0;exitDx=0;exitDy=0;" edge="1" parent="1" source="YCs22R1dOhL2tlYhxTAM-9" target="YCs22R1dOhL2tlYhxTAM-2">
          <mxGeometry width="160" relative="1" as="geometry">
            <mxPoint x="1165" y="550" as="sourcePoint" />
            <mxPoint x="1325" y="550" as="targetPoint" />
            <Array as="points">
              <mxPoint x="1520" y="199" />
            </Array>
          </mxGeometry>
        </mxCell>
        <mxCell id="YCs22R1dOhL2tlYhxTAM-43" value="" style="endArrow=diamondThin;endFill=1;endSize=24;html=1;rounded=0;entryX=0;entryY=0.5;entryDx=0;entryDy=0;exitX=0.5;exitY=0;exitDx=0;exitDy=0;" edge="1" parent="1" source="YCs22R1dOhL2tlYhxTAM-25" target="YCs22R1dOhL2tlYhxTAM-2">
          <mxGeometry width="160" relative="1" as="geometry">
            <mxPoint x="1035" y="440" as="sourcePoint" />
            <mxPoint x="1325" y="530" as="targetPoint" />
            <Array as="points">
              <mxPoint x="955" y="200" />
            </Array>
          </mxGeometry>
        </mxCell>
        <mxCell id="YCs22R1dOhL2tlYhxTAM-44" value="" style="endArrow=diamondThin;endFill=1;endSize=24;html=1;rounded=0;entryX=0.567;entryY=1.034;entryDx=0;entryDy=0;entryPerimeter=0;exitX=0.5;exitY=0;exitDx=0;exitDy=0;" edge="1" parent="1" source="YCs22R1dOhL2tlYhxTAM-13" target="YCs22R1dOhL2tlYhxTAM-4">
          <mxGeometry width="160" relative="1" as="geometry">
            <mxPoint x="1165" y="630" as="sourcePoint" />
            <mxPoint x="1325" y="630" as="targetPoint" />
          </mxGeometry>
        </mxCell>
        <mxCell id="YCs22R1dOhL2tlYhxTAM-47" value="" style="endArrow=diamondThin;endFill=1;endSize=24;html=1;rounded=0;entryX=0.195;entryY=1.015;entryDx=0;entryDy=0;entryPerimeter=0;exitX=1;exitY=0.5;exitDx=0;exitDy=0;" edge="1" parent="1" source="YCs22R1dOhL2tlYhxTAM-30" target="YCs22R1dOhL2tlYhxTAM-4">
          <mxGeometry width="160" relative="1" as="geometry">
            <mxPoint x="1165" y="630" as="sourcePoint" />
            <mxPoint x="1185" y="520" as="targetPoint" />
            <Array as="points">
              <mxPoint x="1162" y="740" />
            </Array>
          </mxGeometry>
        </mxCell>
        <mxCell id="YCs22R1dOhL2tlYhxTAM-48" value="&lt;b&gt;&lt;font style=&quot;font-size: 17px;&quot;&gt;*&lt;/font&gt;&lt;/b&gt;" style="text;html=1;align=center;verticalAlign=middle;whiteSpace=wrap;rounded=0;" vertex="1" parent="1">
          <mxGeometry x="1485" y="494" width="60" height="30" as="geometry" />
        </mxCell>
        <mxCell id="YCs22R1dOhL2tlYhxTAM-49" value="&lt;span style=&quot;text-align: left;&quot;&gt;ListCurso&lt;/span&gt;" style="text;html=1;align=center;verticalAlign=middle;whiteSpace=wrap;rounded=0;fontStyle=1" vertex="1" parent="1">
          <mxGeometry x="1529" y="490" width="60" height="30" as="geometry" />
        </mxCell>
        <mxCell id="YCs22R1dOhL2tlYhxTAM-50" value="ownedByAcademia" style="text;html=1;align=center;verticalAlign=middle;whiteSpace=wrap;rounded=0;" vertex="1" parent="1">
          <mxGeometry x="1460" y="160" width="60" height="30" as="geometry" />
        </mxCell>
        <mxCell id="YCs22R1dOhL2tlYhxTAM-51" value="&lt;span style=&quot;text-align: left;&quot;&gt;&lt;b&gt;ListEstudiante&lt;/b&gt;&lt;/span&gt;" style="text;html=1;align=center;verticalAlign=middle;whiteSpace=wrap;rounded=0;rotation=0;" vertex="1" parent="1">
          <mxGeometry x="875" y="450" width="60" height="30" as="geometry" />
        </mxCell>
        <mxCell id="YCs22R1dOhL2tlYhxTAM-52" value="&lt;b style=&quot;forced-color-adjust: none; color: rgb(0, 0, 0); font-family: Helvetica; font-size: 12px; font-style: normal; font-variant-ligatures: normal; font-variant-caps: normal; letter-spacing: normal; orphans: 2; text-align: center; text-indent: 0px; text-transform: none; widows: 2; word-spacing: 0px; -webkit-text-stroke-width: 0px; white-space: normal; background-color: rgb(236, 236, 236); text-decoration-thickness: initial; text-decoration-style: initial; text-decoration-color: initial;&quot;&gt;&lt;font style=&quot;forced-color-adjust: none; font-size: 17px;&quot;&gt;*&lt;/font&gt;&lt;/b&gt;" style="text;whiteSpace=wrap;html=1;" vertex="1" parent="1">
          <mxGeometry x="965" y="454" width="20" height="40" as="geometry" />
        </mxCell>
        <mxCell id="YCs22R1dOhL2tlYhxTAM-53" value="ownedByAcademia" style="text;html=1;align=center;verticalAlign=middle;whiteSpace=wrap;rounded=0;" vertex="1" parent="1">
          <mxGeometry x="1000" y="160" width="60" height="30" as="geometry" />
        </mxCell>
        <mxCell id="YCs22R1dOhL2tlYhxTAM-54" value="&lt;span style=&quot;text-align: left;&quot;&gt;&lt;b&gt;&lt;font style=&quot;font-size: 9px;&quot;&gt;ListProfesor&lt;/font&gt;&lt;/b&gt;&lt;/span&gt;" style="text;html=1;align=center;verticalAlign=middle;whiteSpace=wrap;rounded=0;" vertex="1" parent="1">
          <mxGeometry x="1095" y="710" width="60" height="30" as="geometry" />
        </mxCell>
        <mxCell id="YCs22R1dOhL2tlYhxTAM-55" value="&lt;b&gt;&lt;font style=&quot;font-size: 17px;&quot;&gt;*&lt;/font&gt;&lt;/b&gt;" style="text;html=1;align=center;verticalAlign=middle;whiteSpace=wrap;rounded=0;" vertex="1" parent="1">
          <mxGeometry x="1074.5" y="740" width="60" height="30" as="geometry" />
        </mxCell>
        <mxCell id="YCs22R1dOhL2tlYhxTAM-57" value="&lt;span style=&quot;text-align: left;&quot;&gt;&lt;b&gt;ListAula&lt;/b&gt;&lt;/span&gt;" style="text;html=1;align=center;verticalAlign=middle;whiteSpace=wrap;rounded=0;" vertex="1" parent="1">
          <mxGeometry x="1205" y="760" width="60" height="30" as="geometry" />
        </mxCell>
        <mxCell id="YCs22R1dOhL2tlYhxTAM-58" value="&lt;b&gt;&lt;font style=&quot;font-size: 17px;&quot;&gt;*&lt;/font&gt;&lt;/b&gt;" style="text;html=1;align=center;verticalAlign=middle;whiteSpace=wrap;rounded=0;" vertex="1" parent="1">
          <mxGeometry x="1264" y="770" width="60" height="30" as="geometry" />
        </mxCell>
        <mxCell id="YCs22R1dOhL2tlYhxTAM-59" value="ownedByAcademia" style="text;html=1;align=center;verticalAlign=middle;whiteSpace=wrap;rounded=0;rotation=90;" vertex="1" parent="1">
          <mxGeometry x="1105" y="550" width="60" height="30" as="geometry" />
        </mxCell>
        <mxCell id="YCs22R1dOhL2tlYhxTAM-60" value="ownedByAcademia" style="text;html=1;align=center;verticalAlign=middle;whiteSpace=wrap;rounded=0;rotation=90;" vertex="1" parent="1">
          <mxGeometry x="1275" y="550" width="60" height="30" as="geometry" />
        </mxCell>
        <mxCell id="YCs22R1dOhL2tlYhxTAM-77" value="Profesor" style="swimlane;fontStyle=1;align=center;verticalAlign=top;childLayout=stackLayout;horizontal=1;startSize=26;horizontalStack=0;resizeParent=1;resizeParentMax=0;resizeLast=0;collapsible=1;marginBottom=0;whiteSpace=wrap;html=1;" vertex="1" parent="1">
          <mxGeometry x="888" y="1690" width="160" height="86" as="geometry" />
        </mxCell>
        <mxCell id="YCs22R1dOhL2tlYhxTAM-78" value="&amp;nbsp;- especialidad : String" style="text;strokeColor=none;fillColor=none;align=left;verticalAlign=top;spacingLeft=4;spacingRight=4;overflow=hidden;rotatable=0;points=[[0,0.5],[1,0.5]];portConstraint=eastwest;whiteSpace=wrap;html=1;" vertex="1" parent="YCs22R1dOhL2tlYhxTAM-77">
          <mxGeometry y="26" width="160" height="26" as="geometry" />
        </mxCell>
        <mxCell id="YCs22R1dOhL2tlYhxTAM-79" value="" style="line;strokeWidth=1;fillColor=none;align=left;verticalAlign=middle;spacingTop=-1;spacingLeft=3;spacingRight=3;rotatable=0;labelPosition=right;points=[];portConstraint=eastwest;strokeColor=inherit;" vertex="1" parent="YCs22R1dOhL2tlYhxTAM-77">
          <mxGeometry y="52" width="160" height="8" as="geometry" />
        </mxCell>
        <mxCell id="YCs22R1dOhL2tlYhxTAM-80" value="+ method(type): type" style="text;strokeColor=none;fillColor=none;align=left;verticalAlign=top;spacingLeft=4;spacingRight=4;overflow=hidden;rotatable=0;points=[[0,0.5],[1,0.5]];portConstraint=eastwest;whiteSpace=wrap;html=1;" vertex="1" parent="YCs22R1dOhL2tlYhxTAM-77">
          <mxGeometry y="60" width="160" height="26" as="geometry" />
        </mxCell>
        <mxCell id="YCs22R1dOhL2tlYhxTAM-81" value="" style="endArrow=diamondThin;endFill=0;endSize=24;html=1;rounded=0;entryX=0;entryY=0.5;entryDx=0;entryDy=0;exitX=0.5;exitY=0;exitDx=0;exitDy=0;" edge="1" parent="1" source="YCs22R1dOhL2tlYhxTAM-77" target="FrKPrRcWHJhdPSHOdW_0-21">
          <mxGeometry width="160" relative="1" as="geometry">
            <mxPoint x="1078" y="1400" as="sourcePoint" />
            <mxPoint x="1134.5" y="1508" as="targetPoint" />
            <Array as="points">
              <mxPoint x="968" y="1490" />
            </Array>
          </mxGeometry>
        </mxCell>
        <mxCell id="YCs22R1dOhL2tlYhxTAM-82" value="" style="endArrow=diamondThin;endFill=0;endSize=24;html=1;rounded=0;entryX=1;entryY=0.5;entryDx=0;entryDy=0;exitX=0.5;exitY=0;exitDx=0;exitDy=0;" edge="1" parent="1" source="YCs22R1dOhL2tlYhxTAM-5" target="FrKPrRcWHJhdPSHOdW_0-21">
          <mxGeometry width="160" relative="1" as="geometry">
            <mxPoint x="1078" y="1400" as="sourcePoint" />
            <mxPoint x="1335.5" y="1508" as="targetPoint" />
            <Array as="points">
              <mxPoint x="1479" y="1490" />
            </Array>
          </mxGeometry>
        </mxCell>
        <mxCell id="YCs22R1dOhL2tlYhxTAM-84" value="Clase" style="swimlane;fontStyle=1;align=center;verticalAlign=top;childLayout=stackLayout;horizontal=1;startSize=26;horizontalStack=0;resizeParent=1;resizeParentMax=0;resizeLast=0;collapsible=1;marginBottom=0;whiteSpace=wrap;html=1;" vertex="1" parent="1">
          <mxGeometry x="320" y="1320" width="240" height="180" as="geometry" />
        </mxCell>
        <mxCell id="YCs22R1dOhL2tlYhxTAM-85" value="&lt;div&gt;&amp;nbsp; &amp;nbsp; - idClase : String&lt;/div&gt;&lt;div&gt;&amp;nbsp; &amp;nbsp; - fecha : String&lt;/div&gt;&lt;div&gt;&amp;nbsp; &amp;nbsp; - hora : String&lt;/div&gt;&lt;div&gt;&amp;nbsp; &amp;nbsp; - aula : Aula&lt;/div&gt;&lt;div&gt;&amp;nbsp; &amp;nbsp; - tipo : String&lt;/div&gt;&lt;div&gt;&amp;nbsp; &amp;nbsp; - asistencia : MapEstudiante, Boolean&lt;/div&gt;" style="text;strokeColor=none;fillColor=none;align=left;verticalAlign=top;spacingLeft=4;spacingRight=4;overflow=hidden;rotatable=0;points=[[0,0.5],[1,0.5]];portConstraint=eastwest;whiteSpace=wrap;html=1;" vertex="1" parent="YCs22R1dOhL2tlYhxTAM-84">
          <mxGeometry y="26" width="240" height="94" as="geometry" />
        </mxCell>
        <mxCell id="YCs22R1dOhL2tlYhxTAM-86" value="" style="line;strokeWidth=1;fillColor=none;align=left;verticalAlign=middle;spacingTop=-1;spacingLeft=3;spacingRight=3;rotatable=0;labelPosition=right;points=[];portConstraint=eastwest;strokeColor=inherit;" vertex="1" parent="YCs22R1dOhL2tlYhxTAM-84">
          <mxGeometry y="120" width="240" height="8" as="geometry" />
        </mxCell>
        <mxCell id="YCs22R1dOhL2tlYhxTAM-87" value="+registrarAsistencia(est: Estudiante)&lt;div&gt;+agregarComentarioProgreso(coment: String)&lt;/div&gt;" style="text;strokeColor=none;fillColor=none;align=left;verticalAlign=top;spacingLeft=4;spacingRight=4;overflow=hidden;rotatable=0;points=[[0,0.5],[1,0.5]];portConstraint=eastwest;whiteSpace=wrap;html=1;" vertex="1" parent="YCs22R1dOhL2tlYhxTAM-84">
          <mxGeometry y="128" width="240" height="52" as="geometry" />
        </mxCell>
        <mxCell id="YCs22R1dOhL2tlYhxTAM-88" value="Profesor" style="swimlane;fontStyle=1;align=center;verticalAlign=top;childLayout=stackLayout;horizontal=1;startSize=26;horizontalStack=0;resizeParent=1;resizeParentMax=0;resizeLast=0;collapsible=1;marginBottom=0;whiteSpace=wrap;html=1;" vertex="1" parent="1">
          <mxGeometry x="322" y="1675" width="160" height="86" as="geometry" />
        </mxCell>
        <mxCell id="YCs22R1dOhL2tlYhxTAM-89" value="&amp;nbsp;- especialidad : String" style="text;strokeColor=none;fillColor=none;align=left;verticalAlign=top;spacingLeft=4;spacingRight=4;overflow=hidden;rotatable=0;points=[[0,0.5],[1,0.5]];portConstraint=eastwest;whiteSpace=wrap;html=1;" vertex="1" parent="YCs22R1dOhL2tlYhxTAM-88">
          <mxGeometry y="26" width="160" height="26" as="geometry" />
        </mxCell>
        <mxCell id="YCs22R1dOhL2tlYhxTAM-90" value="" style="line;strokeWidth=1;fillColor=none;align=left;verticalAlign=middle;spacingTop=-1;spacingLeft=3;spacingRight=3;rotatable=0;labelPosition=right;points=[];portConstraint=eastwest;strokeColor=inherit;" vertex="1" parent="YCs22R1dOhL2tlYhxTAM-88">
          <mxGeometry y="52" width="160" height="8" as="geometry" />
        </mxCell>
        <mxCell id="YCs22R1dOhL2tlYhxTAM-91" value="+ method(type): type" style="text;strokeColor=none;fillColor=none;align=left;verticalAlign=top;spacingLeft=4;spacingRight=4;overflow=hidden;rotatable=0;points=[[0,0.5],[1,0.5]];portConstraint=eastwest;whiteSpace=wrap;html=1;" vertex="1" parent="YCs22R1dOhL2tlYhxTAM-88">
          <mxGeometry y="60" width="160" height="26" as="geometry" />
        </mxCell>
        <mxCell id="YCs22R1dOhL2tlYhxTAM-92" value="Estudiante" style="swimlane;fontStyle=1;align=center;verticalAlign=top;childLayout=stackLayout;horizontal=1;startSize=26;horizontalStack=0;resizeParent=1;resizeParentMax=0;resizeLast=0;collapsible=1;marginBottom=0;whiteSpace=wrap;html=1;" vertex="1" parent="1">
          <mxGeometry x="40" y="1600" width="160" height="88" as="geometry" />
        </mxCell>
        <mxCell id="YCs22R1dOhL2tlYhxTAM-93" value="- nivelActual : String&lt;div&gt;&lt;br&gt;&lt;/div&gt;" style="text;strokeColor=none;fillColor=none;align=left;verticalAlign=top;spacingLeft=4;spacingRight=4;overflow=hidden;rotatable=0;points=[[0,0.5],[1,0.5]];portConstraint=eastwest;whiteSpace=wrap;html=1;" vertex="1" parent="YCs22R1dOhL2tlYhxTAM-92">
          <mxGeometry y="26" width="160" height="26" as="geometry" />
        </mxCell>
        <mxCell id="YCs22R1dOhL2tlYhxTAM-94" value="" style="line;strokeWidth=1;fillColor=none;align=left;verticalAlign=middle;spacingTop=-1;spacingLeft=3;spacingRight=3;rotatable=0;labelPosition=right;points=[];portConstraint=eastwest;strokeColor=inherit;" vertex="1" parent="YCs22R1dOhL2tlYhxTAM-92">
          <mxGeometry y="52" width="160" height="10" as="geometry" />
        </mxCell>
        <mxCell id="YCs22R1dOhL2tlYhxTAM-95" value="+ method(type): type" style="text;strokeColor=none;fillColor=none;align=left;verticalAlign=top;spacingLeft=4;spacingRight=4;overflow=hidden;rotatable=0;points=[[0,0.5],[1,0.5]];portConstraint=eastwest;whiteSpace=wrap;html=1;" vertex="1" parent="YCs22R1dOhL2tlYhxTAM-92">
          <mxGeometry y="62" width="160" height="26" as="geometry" />
        </mxCell>
        <mxCell id="YCs22R1dOhL2tlYhxTAM-100" value="" style="endArrow=block;startArrow=block;endFill=1;startFill=1;html=1;rounded=0;exitX=0;exitY=0.5;exitDx=0;exitDy=0;entryX=0.5;entryY=0;entryDx=0;entryDy=0;" edge="1" parent="1">
          <mxGeometry width="160" relative="1" as="geometry">
            <mxPoint x="320" y="1393.0000000000005" as="sourcePoint" />
            <mxPoint x="120" y="1600" as="targetPoint" />
            <Array as="points">
              <mxPoint x="120" y="1393" />
            </Array>
          </mxGeometry>
        </mxCell>
        <mxCell id="YCs22R1dOhL2tlYhxTAM-101" value="" style="endArrow=block;startArrow=block;endFill=1;startFill=1;html=1;rounded=0;exitX=1;exitY=0.5;exitDx=0;exitDy=0;entryX=0.5;entryY=0;entryDx=0;entryDy=0;" edge="1" parent="1" source="YCs22R1dOhL2tlYhxTAM-85">
          <mxGeometry width="160" relative="1" as="geometry">
            <mxPoint x="400" y="1530" as="sourcePoint" />
            <mxPoint x="699.5" y="1600" as="targetPoint" />
            <Array as="points">
              <mxPoint x="700" y="1393" />
            </Array>
          </mxGeometry>
        </mxCell>
        <mxCell id="YCs22R1dOhL2tlYhxTAM-102" value="" style="endArrow=block;startArrow=block;endFill=1;startFill=1;html=1;rounded=0;exitX=0.343;exitY=1.112;exitDx=0;exitDy=0;exitPerimeter=0;entryX=0.5;entryY=0;entryDx=0;entryDy=0;" edge="1" parent="1" source="YCs22R1dOhL2tlYhxTAM-87" target="YCs22R1dOhL2tlYhxTAM-88">
          <mxGeometry width="160" relative="1" as="geometry">
            <mxPoint x="430" y="1550" as="sourcePoint" />
            <mxPoint x="490" y="1660" as="targetPoint" />
          </mxGeometry>
        </mxCell>
        <mxCell id="YCs22R1dOhL2tlYhxTAM-104" value="" style="endArrow=open;endFill=1;endSize=12;html=1;rounded=0;exitX=0.5;exitY=0;exitDx=0;exitDy=0;" edge="1" parent="1" source="YCs22R1dOhL2tlYhxTAM-17">
          <mxGeometry width="160" relative="1" as="geometry">
            <mxPoint x="54.5" y="1770" as="sourcePoint" />
            <mxPoint x="135" y="1687" as="targetPoint" />
          </mxGeometry>
        </mxCell>
        <mxCell id="YCs22R1dOhL2tlYhxTAM-109" value="" style="endArrow=block;startArrow=block;endFill=1;startFill=1;html=1;rounded=0;exitX=0.431;exitY=1.192;exitDx=0;exitDy=0;exitPerimeter=0;entryX=0;entryY=0.5;entryDx=0;entryDy=0;" edge="1" parent="1" source="YCs22R1dOhL2tlYhxTAM-20">
          <mxGeometry width="160" relative="1" as="geometry">
            <mxPoint x="54.5" y="2134.29" as="sourcePoint" />
            <mxPoint x="284" y="2128" as="targetPoint" />
            <Array as="points">
              <mxPoint x="120" y="2128" />
            </Array>
          </mxGeometry>
        </mxCell>
        <mxCell id="YCs22R1dOhL2tlYhxTAM-114" value="" style="endArrow=diamondThin;endFill=0;endSize=24;html=1;rounded=0;entryX=0.46;entryY=1.04;entryDx=0;entryDy=0;entryPerimeter=0;exitX=0.5;exitY=0;exitDx=0;exitDy=0;" edge="1" parent="1">
          <mxGeometry width="160" relative="1" as="geometry">
            <mxPoint x="1228" y="1930" as="sourcePoint" />
            <mxPoint x="1226.96" y="1601.2800000000002" as="targetPoint" />
          </mxGeometry>
        </mxCell>
        <mxCell id="YCs22R1dOhL2tlYhxTAM-115" value="AdministradorAcademico" style="swimlane;fontStyle=1;align=center;verticalAlign=top;childLayout=stackLayout;horizontal=1;startSize=26;horizontalStack=0;resizeParent=1;resizeParentMax=0;resizeLast=0;collapsible=1;marginBottom=0;whiteSpace=wrap;html=1;" vertex="1" parent="1">
          <mxGeometry x="325" y="2650" width="160" height="120" as="geometry" />
        </mxCell>
        <mxCell id="YCs22R1dOhL2tlYhxTAM-116" value="+ field: type" style="text;strokeColor=none;fillColor=none;align=left;verticalAlign=top;spacingLeft=4;spacingRight=4;overflow=hidden;rotatable=0;points=[[0,0.5],[1,0.5]];portConstraint=eastwest;whiteSpace=wrap;html=1;" vertex="1" parent="YCs22R1dOhL2tlYhxTAM-115">
          <mxGeometry y="26" width="160" height="26" as="geometry" />
        </mxCell>
        <mxCell id="YCs22R1dOhL2tlYhxTAM-117" value="" style="line;strokeWidth=1;fillColor=none;align=left;verticalAlign=middle;spacingTop=-1;spacingLeft=3;spacingRight=3;rotatable=0;labelPosition=right;points=[];portConstraint=eastwest;strokeColor=inherit;" vertex="1" parent="YCs22R1dOhL2tlYhxTAM-115">
          <mxGeometry y="52" width="160" height="8" as="geometry" />
        </mxCell>
        <mxCell id="YCs22R1dOhL2tlYhxTAM-118" value="generarPDF()&lt;div&gt;registrarEvaluacion(aspecto: String, nota: double)&lt;/div&gt;" style="text;strokeColor=none;fillColor=none;align=left;verticalAlign=top;spacingLeft=4;spacingRight=4;overflow=hidden;rotatable=0;points=[[0,0.5],[1,0.5]];portConstraint=eastwest;whiteSpace=wrap;html=1;" vertex="1" parent="YCs22R1dOhL2tlYhxTAM-115">
          <mxGeometry y="60" width="160" height="60" as="geometry" />
        </mxCell>
        <mxCell id="YCs22R1dOhL2tlYhxTAM-119" value="&lt;div&gt;&amp;lt;&amp;lt;Abstract&amp;gt;&amp;gt;&lt;/div&gt;Persona" style="swimlane;fontStyle=1;align=center;verticalAlign=top;childLayout=stackLayout;horizontal=1;startSize=40;horizontalStack=0;resizeParent=1;resizeParentMax=0;resizeLast=0;collapsible=1;marginBottom=0;whiteSpace=wrap;html=1;" vertex="1" parent="1">
          <mxGeometry x="70" y="2810" width="160" height="174" as="geometry" />
        </mxCell>
        <mxCell id="YCs22R1dOhL2tlYhxTAM-120" value="- id : String&lt;div&gt;- nombre : String&lt;/div&gt;&lt;div&gt;&amp;nbsp;- apellido : String&lt;/div&gt;&lt;div&gt;- documento : String&lt;/div&gt;&lt;div&gt;&amp;nbsp;- email : String&lt;/div&gt;&lt;div&gt;- telefono : String&lt;/div&gt;" style="text;strokeColor=none;fillColor=none;align=left;verticalAlign=top;spacingLeft=4;spacingRight=4;overflow=hidden;rotatable=0;points=[[0,0.5],[1,0.5]];portConstraint=eastwest;whiteSpace=wrap;html=1;" vertex="1" parent="YCs22R1dOhL2tlYhxTAM-119">
          <mxGeometry y="40" width="160" height="100" as="geometry" />
        </mxCell>
        <mxCell id="YCs22R1dOhL2tlYhxTAM-121" value="" style="line;strokeWidth=1;fillColor=none;align=left;verticalAlign=middle;spacingTop=-1;spacingLeft=3;spacingRight=3;rotatable=0;labelPosition=right;points=[];portConstraint=eastwest;strokeColor=inherit;" vertex="1" parent="YCs22R1dOhL2tlYhxTAM-119">
          <mxGeometry y="140" width="160" height="8" as="geometry" />
        </mxCell>
        <mxCell id="YCs22R1dOhL2tlYhxTAM-122" value="+ method(type): type" style="text;strokeColor=none;fillColor=none;align=left;verticalAlign=top;spacingLeft=4;spacingRight=4;overflow=hidden;rotatable=0;points=[[0,0.5],[1,0.5]];portConstraint=eastwest;whiteSpace=wrap;html=1;" vertex="1" parent="YCs22R1dOhL2tlYhxTAM-119">
          <mxGeometry y="148" width="160" height="26" as="geometry" />
        </mxCell>
        <mxCell id="YCs22R1dOhL2tlYhxTAM-123" value="Curso" style="swimlane;fontStyle=1;align=center;verticalAlign=top;childLayout=stackLayout;horizontal=1;startSize=26;horizontalStack=0;resizeParent=1;resizeParentMax=0;resizeLast=0;collapsible=1;marginBottom=0;whiteSpace=wrap;html=1;" vertex="1" parent="1">
          <mxGeometry x="304.5" y="2984" width="201" height="170" as="geometry" />
        </mxCell>
        <mxCell id="YCs22R1dOhL2tlYhxTAM-124" value="&lt;div&gt;&amp;nbsp; &amp;nbsp; - idCurso : String&lt;/div&gt;&lt;div&gt;&amp;nbsp; &amp;nbsp; - instrumento : String&lt;/div&gt;&lt;div&gt;&amp;nbsp; &amp;nbsp; - nivel : String&lt;/div&gt;&lt;div&gt;&amp;nbsp; &amp;nbsp; - capacidad : int&lt;/div&gt;&lt;div&gt;&amp;nbsp; &amp;nbsp; - prerrequisito : String&lt;/div&gt;&lt;div&gt;&amp;nbsp; &lt;span style=&quot;background-color: transparent; color: light-dark(rgb(0, 0, 0), rgb(255, 255, 255));&quot;&gt;&amp;nbsp; - clasesProgramadas : ListClase&lt;/span&gt;&lt;/div&gt;" style="text;strokeColor=none;fillColor=none;align=left;verticalAlign=top;spacingLeft=4;spacingRight=4;overflow=hidden;rotatable=0;points=[[0,0.5],[1,0.5]];portConstraint=eastwest;whiteSpace=wrap;html=1;" vertex="1" parent="YCs22R1dOhL2tlYhxTAM-123">
          <mxGeometry y="26" width="201" height="104" as="geometry" />
        </mxCell>
        <mxCell id="YCs22R1dOhL2tlYhxTAM-125" value="" style="line;strokeWidth=1;fillColor=none;align=left;verticalAlign=middle;spacingTop=-1;spacingLeft=3;spacingRight=3;rotatable=0;labelPosition=right;points=[];portConstraint=eastwest;strokeColor=inherit;" vertex="1" parent="YCs22R1dOhL2tlYhxTAM-123">
          <mxGeometry y="130" width="201" height="8" as="geometry" />
        </mxCell>
        <mxCell id="YCs22R1dOhL2tlYhxTAM-126" value="+ method(type): type" style="text;strokeColor=none;fillColor=none;align=left;verticalAlign=top;spacingLeft=4;spacingRight=4;overflow=hidden;rotatable=0;points=[[0,0.5],[1,0.5]];portConstraint=eastwest;whiteSpace=wrap;html=1;" vertex="1" parent="YCs22R1dOhL2tlYhxTAM-123">
          <mxGeometry y="138" width="201" height="32" as="geometry" />
        </mxCell>
        <mxCell id="YCs22R1dOhL2tlYhxTAM-127" value="Aula" style="swimlane;fontStyle=1;align=center;verticalAlign=top;childLayout=stackLayout;horizontal=1;startSize=26;horizontalStack=0;resizeParent=1;resizeParentMax=0;resizeLast=0;collapsible=1;marginBottom=0;whiteSpace=wrap;html=1;" vertex="1" parent="1">
          <mxGeometry x="571" y="2810" width="179" height="124" as="geometry" />
        </mxCell>
        <mxCell id="YCs22R1dOhL2tlYhxTAM-128" value="&lt;div&gt;&amp;nbsp; &amp;nbsp; - idAula : String&lt;/div&gt;&lt;div&gt;&amp;nbsp; &amp;nbsp; - capacidad : int&lt;/div&gt;&lt;div&gt;&amp;nbsp; &amp;nbsp; - tipo : String&lt;/div&gt;&lt;div&gt;&amp;nbsp; &amp;nbsp; - clasesOcupadas : ListClase&lt;/div&gt;" style="text;strokeColor=none;fillColor=none;align=left;verticalAlign=top;spacingLeft=4;spacingRight=4;overflow=hidden;rotatable=0;points=[[0,0.5],[1,0.5]];portConstraint=eastwest;whiteSpace=wrap;html=1;" vertex="1" parent="YCs22R1dOhL2tlYhxTAM-127">
          <mxGeometry y="26" width="179" height="64" as="geometry" />
        </mxCell>
        <mxCell id="YCs22R1dOhL2tlYhxTAM-129" value="" style="line;strokeWidth=1;fillColor=none;align=left;verticalAlign=middle;spacingTop=-1;spacingLeft=3;spacingRight=3;rotatable=0;labelPosition=right;points=[];portConstraint=eastwest;strokeColor=inherit;" vertex="1" parent="YCs22R1dOhL2tlYhxTAM-127">
          <mxGeometry y="90" width="179" height="8" as="geometry" />
        </mxCell>
        <mxCell id="YCs22R1dOhL2tlYhxTAM-130" value="+ method(type): type" style="text;strokeColor=none;fillColor=none;align=left;verticalAlign=top;spacingLeft=4;spacingRight=4;overflow=hidden;rotatable=0;points=[[0,0.5],[1,0.5]];portConstraint=eastwest;whiteSpace=wrap;html=1;" vertex="1" parent="YCs22R1dOhL2tlYhxTAM-127">
          <mxGeometry y="98" width="179" height="26" as="geometry" />
        </mxCell>
        <mxCell id="YCs22R1dOhL2tlYhxTAM-131" value="" style="endArrow=block;dashed=1;endFill=0;endSize=12;html=1;rounded=0;exitX=0.5;exitY=0;exitDx=0;exitDy=0;entryX=0;entryY=0.5;entryDx=0;entryDy=0;" edge="1" parent="1" source="YCs22R1dOhL2tlYhxTAM-119" target="YCs22R1dOhL2tlYhxTAM-116">
          <mxGeometry width="160" relative="1" as="geometry">
            <mxPoint x="531" y="2730" as="sourcePoint" />
            <mxPoint x="691" y="2730" as="targetPoint" />
            <Array as="points">
              <mxPoint x="150" y="2689" />
            </Array>
          </mxGeometry>
        </mxCell>
        <mxCell id="YCs22R1dOhL2tlYhxTAM-132" value="" style="endArrow=block;dashed=1;endFill=0;endSize=12;html=1;rounded=0;entryX=1;entryY=0.5;entryDx=0;entryDy=0;exitX=0.5;exitY=0;exitDx=0;exitDy=0;" edge="1" parent="1" source="YCs22R1dOhL2tlYhxTAM-127" target="YCs22R1dOhL2tlYhxTAM-116">
          <mxGeometry width="160" relative="1" as="geometry">
            <mxPoint x="531" y="2730" as="sourcePoint" />
            <mxPoint x="691" y="2730" as="targetPoint" />
            <Array as="points">
              <mxPoint x="661" y="2689" />
            </Array>
          </mxGeometry>
        </mxCell>
        <mxCell id="YCs22R1dOhL2tlYhxTAM-133" value="" style="endArrow=block;dashed=1;endFill=0;endSize=12;html=1;rounded=0;exitX=0.5;exitY=0;exitDx=0;exitDy=0;" edge="1" parent="1" source="YCs22R1dOhL2tlYhxTAM-123">
          <mxGeometry width="160" relative="1" as="geometry">
            <mxPoint x="531" y="2880" as="sourcePoint" />
            <mxPoint x="405" y="2780" as="targetPoint" />
          </mxGeometry>
        </mxCell>
        <mxCell id="YCs22R1dOhL2tlYhxTAM-134" value="&lt;b&gt;ASOCIACION&lt;/b&gt;" style="rounded=1;whiteSpace=wrap;html=1;" vertex="1" parent="1">
          <mxGeometry x="340" y="1200" width="254.5" height="60" as="geometry" />
        </mxCell>
        <mxCell id="YCs22R1dOhL2tlYhxTAM-135" value="&lt;b&gt;AGREGACION&lt;/b&gt;" style="rounded=1;whiteSpace=wrap;html=1;" vertex="1" parent="1">
          <mxGeometry x="1134.5" y="1200" width="172" height="60" as="geometry" />
        </mxCell>
        <mxCell id="YCs22R1dOhL2tlYhxTAM-136" value="&lt;b&gt;COMPOSICION&lt;/b&gt;" style="rounded=1;whiteSpace=wrap;html=1;" vertex="1" parent="1">
          <mxGeometry x="1155" y="40" width="120" height="60" as="geometry" />
        </mxCell>
        <mxCell id="YCs22R1dOhL2tlYhxTAM-137" value="&lt;b&gt;DEPENDENCIA&lt;/b&gt;" style="rounded=1;whiteSpace=wrap;html=1;" vertex="1" parent="1">
          <mxGeometry x="354" y="2400" width="120" height="60" as="geometry" />
        </mxCell>
        <mxCell id="YCs22R1dOhL2tlYhxTAM-138" value="&lt;span style=&quot;text-align: left;&quot;&gt;&amp;nbsp;ListEstudiante&lt;/span&gt;" style="text;html=1;align=center;verticalAlign=middle;whiteSpace=wrap;rounded=0;" vertex="1" parent="1">
          <mxGeometry x="40" y="1560" width="60" height="30" as="geometry" />
        </mxCell>
        <mxCell id="YCs22R1dOhL2tlYhxTAM-139" value="TheProfesor" style="text;html=1;align=center;verticalAlign=middle;whiteSpace=wrap;rounded=0;" vertex="1" parent="1">
          <mxGeometry x="418" y="1640" width="60" height="30" as="geometry" />
        </mxCell>
        <mxCell id="YCs22R1dOhL2tlYhxTAM-140" value="&lt;b&gt;&lt;font style=&quot;font-size: 18px;&quot;&gt;*&lt;/font&gt;&lt;/b&gt;" style="text;html=1;align=center;verticalAlign=middle;whiteSpace=wrap;rounded=0;" vertex="1" parent="1">
          <mxGeometry x="104.5" y="1570" width="60" height="30" as="geometry" />
        </mxCell>
        <mxCell id="YCs22R1dOhL2tlYhxTAM-141" value="&lt;b&gt;TheAula&lt;/b&gt;" style="text;html=1;align=center;verticalAlign=middle;whiteSpace=wrap;rounded=0;" vertex="1" parent="1">
          <mxGeometry x="710" y="1570" width="60" height="30" as="geometry" />
        </mxCell>
        <mxCell id="YCs22R1dOhL2tlYhxTAM-142" value="TheReporte" style="text;html=1;align=center;verticalAlign=middle;whiteSpace=wrap;rounded=0;" vertex="1" parent="1">
          <mxGeometry x="140" y="1800" width="60" height="30" as="geometry" />
        </mxCell>
        <mxCell id="YCs22R1dOhL2tlYhxTAM-143" value="TheReporte" style="text;html=1;align=center;verticalAlign=middle;whiteSpace=wrap;rounded=0;" vertex="1" parent="1">
          <mxGeometry x="130" y="1980" width="60" height="30" as="geometry" />
        </mxCell>
        <mxCell id="YCs22R1dOhL2tlYhxTAM-144" value="&lt;b&gt;TheProfesor&lt;/b&gt;" style="text;html=1;align=center;verticalAlign=middle;whiteSpace=wrap;rounded=0;" vertex="1" parent="1">
          <mxGeometry x="975" y="1658" width="60" height="30" as="geometry" />
        </mxCell>
        <mxCell id="YCs22R1dOhL2tlYhxTAM-145" value="&lt;b&gt;TheClase&lt;/b&gt;" style="text;html=1;align=center;verticalAlign=middle;whiteSpace=wrap;rounded=0;" vertex="1" parent="1">
          <mxGeometry x="1480" y="1670" width="60" height="30" as="geometry" />
        </mxCell>
        <mxCell id="YCs22R1dOhL2tlYhxTAM-146" value="&lt;span style=&quot;text-align: left;&quot;&gt;&lt;b&gt;ListEstudiante&lt;/b&gt;&lt;/span&gt;" style="text;html=1;align=center;verticalAlign=middle;whiteSpace=wrap;rounded=0;" vertex="1" parent="1">
          <mxGeometry x="1148" y="1892" width="60" height="30" as="geometry" />
        </mxCell>
        <mxCell id="YCs22R1dOhL2tlYhxTAM-147" value="&lt;font style=&quot;font-size: 16px;&quot;&gt;&lt;span&gt;*&lt;/span&gt;&lt;/font&gt;" style="text;html=1;align=center;verticalAlign=middle;whiteSpace=wrap;rounded=0;fontStyle=1" vertex="1" parent="1">
          <mxGeometry x="1216" y="1892" width="60" height="30" as="geometry" />
        </mxCell>
        <mxCell id="FrKPrRcWHJhdPSHOdW_0-2" value="Horario" style="swimlane;fontStyle=1;align=center;verticalAlign=top;childLayout=stackLayout;horizontal=1;startSize=26;horizontalStack=0;resizeParent=1;resizeParentMax=0;resizeLast=0;collapsible=1;marginBottom=0;whiteSpace=wrap;html=1;" vertex="1" parent="1">
          <mxGeometry x="620" y="1856" width="160" height="124" as="geometry" />
        </mxCell>
        <mxCell id="FrKPrRcWHJhdPSHOdW_0-3" value="&lt;div&gt;&amp;nbsp;- dia : String&amp;nbsp; &amp;nbsp; &amp;nbsp; &amp;nbsp; &amp;nbsp; &amp;nbsp; &amp;nbsp; &amp;nbsp; &amp;nbsp; &amp;nbsp;&amp;nbsp;&lt;/div&gt;&lt;div&gt;&amp;nbsp;- horaInicio : LocalTime&amp;nbsp; &amp;nbsp; &amp;nbsp; &amp;nbsp;&lt;span style=&quot;background-color: transparent; color: light-dark(rgb(0, 0, 0), rgb(255, 255, 255));&quot;&gt;- horaFin : LocalTime&amp;nbsp;&amp;nbsp;&lt;/span&gt;&lt;/div&gt;" style="text;strokeColor=none;fillColor=none;align=left;verticalAlign=top;spacingLeft=4;spacingRight=4;overflow=hidden;rotatable=0;points=[[0,0.5],[1,0.5]];portConstraint=eastwest;whiteSpace=wrap;html=1;" vertex="1" parent="FrKPrRcWHJhdPSHOdW_0-2">
          <mxGeometry y="26" width="160" height="64" as="geometry" />
        </mxCell>
        <mxCell id="FrKPrRcWHJhdPSHOdW_0-4" value="" style="line;strokeWidth=1;fillColor=none;align=left;verticalAlign=middle;spacingTop=-1;spacingLeft=3;spacingRight=3;rotatable=0;labelPosition=right;points=[];portConstraint=eastwest;strokeColor=inherit;" vertex="1" parent="FrKPrRcWHJhdPSHOdW_0-2">
          <mxGeometry y="90" width="160" height="8" as="geometry" />
        </mxCell>
        <mxCell id="FrKPrRcWHJhdPSHOdW_0-5" value="+ method(type): type" style="text;strokeColor=none;fillColor=none;align=left;verticalAlign=top;spacingLeft=4;spacingRight=4;overflow=hidden;rotatable=0;points=[[0,0.5],[1,0.5]];portConstraint=eastwest;whiteSpace=wrap;html=1;" vertex="1" parent="FrKPrRcWHJhdPSHOdW_0-2">
          <mxGeometry y="98" width="160" height="26" as="geometry" />
        </mxCell>
        <mxCell id="FrKPrRcWHJhdPSHOdW_0-6" value="Asistencia" style="swimlane;fontStyle=1;align=center;verticalAlign=top;childLayout=stackLayout;horizontal=1;startSize=26;horizontalStack=0;resizeParent=1;resizeParentMax=0;resizeLast=0;collapsible=1;marginBottom=0;whiteSpace=wrap;html=1;" vertex="1" parent="1">
          <mxGeometry x="611" y="2116" width="180" height="114" as="geometry" />
        </mxCell>
        <mxCell id="FrKPrRcWHJhdPSHOdW_0-7" value="&lt;div&gt;- fecha : LocalDate&amp;nbsp; &amp;nbsp; &amp;nbsp; &amp;nbsp; &amp;nbsp; &amp;nbsp;&amp;nbsp;&lt;/div&gt;&lt;div&gt;&lt;span style=&quot;background-color: transparent; color: light-dark(rgb(0, 0, 0), rgb(255, 255, 255));&quot;&gt;- presente : boolean&lt;/span&gt;&lt;/div&gt;" style="text;strokeColor=none;fillColor=none;align=left;verticalAlign=top;spacingLeft=4;spacingRight=4;overflow=hidden;rotatable=0;points=[[0,0.5],[1,0.5]];portConstraint=eastwest;whiteSpace=wrap;html=1;" vertex="1" parent="FrKPrRcWHJhdPSHOdW_0-6">
          <mxGeometry y="26" width="180" height="54" as="geometry" />
        </mxCell>
        <mxCell id="FrKPrRcWHJhdPSHOdW_0-8" value="" style="line;strokeWidth=1;fillColor=none;align=left;verticalAlign=middle;spacingTop=-1;spacingLeft=3;spacingRight=3;rotatable=0;labelPosition=right;points=[];portConstraint=eastwest;strokeColor=inherit;" vertex="1" parent="FrKPrRcWHJhdPSHOdW_0-6">
          <mxGeometry y="80" width="180" height="8" as="geometry" />
        </mxCell>
        <mxCell id="FrKPrRcWHJhdPSHOdW_0-9" value="+ registrar(e: Estudiante) : void" style="text;strokeColor=none;fillColor=none;align=left;verticalAlign=top;spacingLeft=4;spacingRight=4;overflow=hidden;rotatable=0;points=[[0,0.5],[1,0.5]];portConstraint=eastwest;whiteSpace=wrap;html=1;" vertex="1" parent="FrKPrRcWHJhdPSHOdW_0-6">
          <mxGeometry y="88" width="180" height="26" as="geometry" />
        </mxCell>
        <mxCell id="FrKPrRcWHJhdPSHOdW_0-10" value="" style="endArrow=block;startArrow=block;endFill=1;startFill=1;html=1;rounded=0;entryX=0.534;entryY=1.11;entryDx=0;entryDy=0;entryPerimeter=0;exitX=0.5;exitY=0;exitDx=0;exitDy=0;" edge="1" parent="1" source="FrKPrRcWHJhdPSHOdW_0-2" target="FrKPrRcWHJhdPSHOdW_0-27">
          <mxGeometry width="160" relative="1" as="geometry">
            <mxPoint x="610" y="1800" as="sourcePoint" />
            <mxPoint x="702.0060000000001" y="1724.3899999999999" as="targetPoint" />
          </mxGeometry>
        </mxCell>
        <mxCell id="FrKPrRcWHJhdPSHOdW_0-11" value="" style="endArrow=block;startArrow=block;endFill=1;startFill=1;html=1;rounded=0;entryX=0.513;entryY=1.077;entryDx=0;entryDy=0;entryPerimeter=0;exitX=0.5;exitY=0;exitDx=0;exitDy=0;" edge="1" parent="1" source="FrKPrRcWHJhdPSHOdW_0-6" target="FrKPrRcWHJhdPSHOdW_0-5">
          <mxGeometry width="160" relative="1" as="geometry">
            <mxPoint x="629" y="2050" as="sourcePoint" />
            <mxPoint x="789" y="2050" as="targetPoint" />
          </mxGeometry>
        </mxCell>
        <mxCell id="FrKPrRcWHJhdPSHOdW_0-16" value="Curso" style="swimlane;fontStyle=1;align=center;verticalAlign=top;childLayout=stackLayout;horizontal=1;startSize=26;horizontalStack=0;resizeParent=1;resizeParentMax=0;resizeLast=0;collapsible=1;marginBottom=0;whiteSpace=wrap;html=1;" vertex="1" parent="1">
          <mxGeometry x="285" y="2040" width="240" height="190" as="geometry" />
        </mxCell>
        <mxCell id="FrKPrRcWHJhdPSHOdW_0-17" value="&lt;div&gt;&amp;nbsp; &amp;nbsp; - idCurso : String&lt;/div&gt;&lt;div&gt;&amp;nbsp; &amp;nbsp; - instrumento : String&lt;/div&gt;&lt;div&gt;&amp;nbsp; &amp;nbsp; - nivel : String&lt;/div&gt;&lt;div&gt;&amp;nbsp; &amp;nbsp; - capacidad : int&lt;/div&gt;&lt;div&gt;&amp;nbsp; &amp;nbsp; - prerrequisito : String&lt;/div&gt;&lt;div&gt;&amp;nbsp; &amp;nbsp; - clasesProgramadas : ListClase&lt;/div&gt;" style="text;strokeColor=none;fillColor=none;align=left;verticalAlign=top;spacingLeft=4;spacingRight=4;overflow=hidden;rotatable=0;points=[[0,0.5],[1,0.5]];portConstraint=eastwest;whiteSpace=wrap;html=1;" vertex="1" parent="FrKPrRcWHJhdPSHOdW_0-16">
          <mxGeometry y="26" width="240" height="104" as="geometry" />
        </mxCell>
        <mxCell id="FrKPrRcWHJhdPSHOdW_0-18" value="" style="line;strokeWidth=1;fillColor=none;align=left;verticalAlign=middle;spacingTop=-1;spacingLeft=3;spacingRight=3;rotatable=0;labelPosition=right;points=[];portConstraint=eastwest;strokeColor=inherit;" vertex="1" parent="FrKPrRcWHJhdPSHOdW_0-16">
          <mxGeometry y="130" width="240" height="8" as="geometry" />
        </mxCell>
        <mxCell id="FrKPrRcWHJhdPSHOdW_0-19" value="&lt;div&gt;+ agregarEstudiante(e: Estudiante) : void&amp;nbsp;&lt;/div&gt;&lt;div&gt;+ verificarCupo() : boolean&amp;nbsp; &amp;nbsp; &amp;nbsp; &amp;nbsp; &amp;nbsp; &amp;nbsp;&amp;nbsp;&lt;/div&gt;&lt;div&gt;+ obtenerHorario() : Horario&amp;nbsp; &amp;nbsp; &amp;nbsp;&lt;/div&gt;" style="text;strokeColor=none;fillColor=none;align=left;verticalAlign=top;spacingLeft=4;spacingRight=4;overflow=hidden;rotatable=0;points=[[0,0.5],[1,0.5]];portConstraint=eastwest;whiteSpace=wrap;html=1;" vertex="1" parent="FrKPrRcWHJhdPSHOdW_0-16">
          <mxGeometry y="138" width="240" height="52" as="geometry" />
        </mxCell>
        <mxCell id="FrKPrRcWHJhdPSHOdW_0-20" value="Curso" style="swimlane;fontStyle=1;align=center;verticalAlign=top;childLayout=stackLayout;horizontal=1;startSize=26;horizontalStack=0;resizeParent=1;resizeParentMax=0;resizeLast=0;collapsible=1;marginBottom=0;whiteSpace=wrap;html=1;" vertex="1" parent="1">
          <mxGeometry x="1121" y="1410" width="240" height="190" as="geometry" />
        </mxCell>
        <mxCell id="FrKPrRcWHJhdPSHOdW_0-21" value="&lt;div&gt;&amp;nbsp; &amp;nbsp; - idCurso : String&lt;/div&gt;&lt;div&gt;&amp;nbsp; &amp;nbsp; - instrumento : String&lt;/div&gt;&lt;div&gt;&amp;nbsp; &amp;nbsp; - nivel : String&lt;/div&gt;&lt;div&gt;&amp;nbsp; &amp;nbsp; - capacidad : int&lt;/div&gt;&lt;div&gt;&amp;nbsp; &amp;nbsp; - prerrequisito : String&lt;/div&gt;&lt;div&gt;&amp;nbsp; &amp;nbsp; - clasesProgramadas : ListClase&lt;/div&gt;" style="text;strokeColor=none;fillColor=none;align=left;verticalAlign=top;spacingLeft=4;spacingRight=4;overflow=hidden;rotatable=0;points=[[0,0.5],[1,0.5]];portConstraint=eastwest;whiteSpace=wrap;html=1;" vertex="1" parent="FrKPrRcWHJhdPSHOdW_0-20">
          <mxGeometry y="26" width="240" height="104" as="geometry" />
        </mxCell>
        <mxCell id="FrKPrRcWHJhdPSHOdW_0-22" value="" style="line;strokeWidth=1;fillColor=none;align=left;verticalAlign=middle;spacingTop=-1;spacingLeft=3;spacingRight=3;rotatable=0;labelPosition=right;points=[];portConstraint=eastwest;strokeColor=inherit;" vertex="1" parent="FrKPrRcWHJhdPSHOdW_0-20">
          <mxGeometry y="130" width="240" height="8" as="geometry" />
        </mxCell>
        <mxCell id="FrKPrRcWHJhdPSHOdW_0-23" value="&lt;div&gt;+ agregarEstudiante(e: Estudiante) : void&amp;nbsp;&lt;/div&gt;&lt;div&gt;+ verificarCupo() : boolean&amp;nbsp; &amp;nbsp; &amp;nbsp; &amp;nbsp; &amp;nbsp; &amp;nbsp;&amp;nbsp;&lt;/div&gt;&lt;div&gt;+ obtenerHorario() : Horario&amp;nbsp; &amp;nbsp; &amp;nbsp;&lt;/div&gt;" style="text;strokeColor=none;fillColor=none;align=left;verticalAlign=top;spacingLeft=4;spacingRight=4;overflow=hidden;rotatable=0;points=[[0,0.5],[1,0.5]];portConstraint=eastwest;whiteSpace=wrap;html=1;" vertex="1" parent="FrKPrRcWHJhdPSHOdW_0-20">
          <mxGeometry y="138" width="240" height="52" as="geometry" />
        </mxCell>
        <mxCell id="FrKPrRcWHJhdPSHOdW_0-24" value="Aula" style="swimlane;fontStyle=1;align=center;verticalAlign=top;childLayout=stackLayout;horizontal=1;startSize=26;horizontalStack=0;resizeParent=1;resizeParentMax=0;resizeLast=0;collapsible=1;marginBottom=0;whiteSpace=wrap;html=1;" vertex="1" parent="1">
          <mxGeometry x="560" y="1603" width="260" height="140" as="geometry" />
        </mxCell>
        <mxCell id="FrKPrRcWHJhdPSHOdW_0-25" value="&lt;div&gt;&amp;nbsp; &amp;nbsp; - idAula : String&lt;/div&gt;&lt;div&gt;&amp;nbsp; &amp;nbsp; - capacidad : int&lt;/div&gt;&lt;div&gt;&amp;nbsp; &amp;nbsp; - tipo : String&lt;/div&gt;&lt;div&gt;&amp;nbsp; &amp;nbsp; - clasesOcupadas : ListClase&lt;/div&gt;" style="text;strokeColor=none;fillColor=none;align=left;verticalAlign=top;spacingLeft=4;spacingRight=4;overflow=hidden;rotatable=0;points=[[0,0.5],[1,0.5]];portConstraint=eastwest;whiteSpace=wrap;html=1;" vertex="1" parent="FrKPrRcWHJhdPSHOdW_0-24">
          <mxGeometry y="26" width="260" height="64" as="geometry" />
        </mxCell>
        <mxCell id="FrKPrRcWHJhdPSHOdW_0-26" value="" style="line;strokeWidth=1;fillColor=none;align=left;verticalAlign=middle;spacingTop=-1;spacingLeft=3;spacingRight=3;rotatable=0;labelPosition=right;points=[];portConstraint=eastwest;strokeColor=inherit;" vertex="1" parent="FrKPrRcWHJhdPSHOdW_0-24">
          <mxGeometry y="90" width="260" height="8" as="geometry" />
        </mxCell>
        <mxCell id="FrKPrRcWHJhdPSHOdW_0-27" value="+ verificarDisponibilidad(h: Horario) : boolean" style="text;strokeColor=none;fillColor=none;align=left;verticalAlign=top;spacingLeft=4;spacingRight=4;overflow=hidden;rotatable=0;points=[[0,0.5],[1,0.5]];portConstraint=eastwest;whiteSpace=wrap;html=1;" vertex="1" parent="FrKPrRcWHJhdPSHOdW_0-24">
          <mxGeometry y="98" width="260" height="42" as="geometry" />
        </mxCell>
        <mxCell id="FrKPrRcWHJhdPSHOdW_0-28" value="Estudiante" style="swimlane;fontStyle=1;align=center;verticalAlign=top;childLayout=stackLayout;horizontal=1;startSize=26;horizontalStack=0;resizeParent=1;resizeParentMax=0;resizeLast=0;collapsible=1;marginBottom=0;whiteSpace=wrap;html=1;" vertex="1" parent="1">
          <mxGeometry x="1142" y="1930" width="180" height="170" as="geometry" />
        </mxCell>
        <mxCell id="FrKPrRcWHJhdPSHOdW_0-29" value="- nivelActual : String&lt;div&gt;&lt;br&gt;&lt;/div&gt;" style="text;strokeColor=none;fillColor=none;align=left;verticalAlign=top;spacingLeft=4;spacingRight=4;overflow=hidden;rotatable=0;points=[[0,0.5],[1,0.5]];portConstraint=eastwest;whiteSpace=wrap;html=1;" vertex="1" parent="FrKPrRcWHJhdPSHOdW_0-28">
          <mxGeometry y="26" width="180" height="26" as="geometry" />
        </mxCell>
        <mxCell id="FrKPrRcWHJhdPSHOdW_0-30" value="" style="line;strokeWidth=1;fillColor=none;align=left;verticalAlign=middle;spacingTop=-1;spacingLeft=3;spacingRight=3;rotatable=0;labelPosition=right;points=[];portConstraint=eastwest;strokeColor=inherit;" vertex="1" parent="FrKPrRcWHJhdPSHOdW_0-28">
          <mxGeometry y="52" width="180" height="10" as="geometry" />
        </mxCell>
        <mxCell id="FrKPrRcWHJhdPSHOdW_0-31" value="&lt;div&gt;+ inscribirseCurso(c: Curso) : void&amp;nbsp;&lt;/div&gt;&lt;div&gt;+ consultarHorario() : void&lt;/div&gt;&lt;div&gt;+ descargarReporte() : void&amp;nbsp;&amp;nbsp;&lt;/div&gt;" style="text;strokeColor=none;fillColor=none;align=left;verticalAlign=top;spacingLeft=4;spacingRight=4;overflow=hidden;rotatable=0;points=[[0,0.5],[1,0.5]];portConstraint=eastwest;whiteSpace=wrap;html=1;" vertex="1" parent="FrKPrRcWHJhdPSHOdW_0-28">
          <mxGeometry y="62" width="180" height="108" as="geometry" />
        </mxCell>
        <mxCell id="-akZSMPGB5BGbH-3CMJO-1" value="ListHorario" style="text;html=1;align=center;verticalAlign=middle;whiteSpace=wrap;rounded=0;" vertex="1" parent="1">
          <mxGeometry x="631" y="1830" width="60" height="30" as="geometry" />
        </mxCell>
        <mxCell id="-akZSMPGB5BGbH-3CMJO-2" value="&lt;font style=&quot;font-size: 16px;&quot;&gt;&lt;span&gt;*&lt;/span&gt;&lt;/font&gt;" style="text;html=1;align=center;verticalAlign=middle;whiteSpace=wrap;rounded=0;fontStyle=1" vertex="1" parent="1">
          <mxGeometry x="691" y="1830" width="60" height="30" as="geometry" />
        </mxCell>
        <mxCell id="-akZSMPGB5BGbH-3CMJO-3" value="ListAsistencia" style="text;html=1;align=center;verticalAlign=middle;whiteSpace=wrap;rounded=0;" vertex="1" parent="1">
          <mxGeometry x="620" y="2086" width="60" height="30" as="geometry" />
        </mxCell>
        <mxCell id="-akZSMPGB5BGbH-3CMJO-4" value="&lt;font style=&quot;font-size: 16px;&quot;&gt;&lt;span&gt;*&lt;/span&gt;&lt;/font&gt;" style="text;html=1;align=center;verticalAlign=middle;whiteSpace=wrap;rounded=0;fontStyle=1" vertex="1" parent="1">
          <mxGeometry x="700" y="2086" width="60" height="30" as="geometry" />
        </mxCell>
      </root>
    </mxGraphModel>
  </diagram>
</mxfile>
